# xmcd
#
# Track frame offsets: 
#        187
#        11090
#        24552
#        40235
#        51682
#        61517
#        77405
#        93112
#        105220
#        117700
#
# Disc length: 1757 seconds
#
# Revision: 0
# Processed by: cddbd v1.5.2PL0 Copyright (c) Steve Scherf et al.
# Submitted via: ExactAudioCopy v1.1
#
DISCID=7306db0a
DTITLE=Ralph Emery and Shotgun Red - Songs For Children
DYEAR=1989
DGENRE=Country
TTITLE0=Old MacDonald
TTITLE1=This Old Man
TTITLE2=(How Much Is That) Doggie In The Window
TTITLE3=Swinging On A Star
TTITLE4=You Are My Sunshine
TTITLE5=Friendship
TTITLE6=Elvira
TTITLE7=My Toot Toot
TTITLE8=Two Old Cats Like Us
TTITLE9=Wabash Cannonball
EXTD=
EXTT0=
EXTT1=
EXTT2=
EXTT3=
EXTT4=
EXTT5=
EXTT6=
EXTT7=
EXTT8=
EXTT9=
PLAYORDER=
